# xmcd CD database file
# Copyright (C) 1997 Ti Kan
# 
# Track frame offsets:
#     183
#     12095
#     21363
#     37733
#     50075
#     60723
#     73088
#     85715
#     98383
#     109045
#     120675
#     135033
# 
# Disc length: 1923 seconds
# 
# Revision: 1
# Processed by: cddbd v1.4b41PL1 Copyright (c) Steve Scherf et al.
# Submitted via: DiscPlay 4.0.4
# 
DISCID=8c07810c
DTITLE=MOE BANDY - MOE BANDY SINGS GREAT AMERICAN COWBOY SONGS
DYEAR=1900
DGENRE=
TTITLE0=HIGH NOON
TTITLE1=TUMBLING TUMBLEWEED
TTITLE2=COOL WATER
TTITLE3=STREETS OF LAREDO
TTITLE4=DON'T FENCE ME IN
TTITLE5=SAN  ANTONIO ROSE
TTITLE6=HOME ON THE RANGE
TTITLE7=I'M AN OLD COWHAND
TTITLE8=BACK IN THE SADDLE AGAIN
TTITLE9=OAKLAHOMA HILLS
TTITLE10=RED RIVER VALLEY
TTITLE11=DEEP IN THE HEART OF TEXAS
EXTD=
EXTT0=
EXTT1=
EXTT2=
EXTT3=
EXTT4=
EXTT5=
EXTT6=
EXTT7=
EXTT8=
EXTT9=
EXTT10=
EXTT11=
PLAYORDER=
